<svg xmlns="http://www.w3.org/2000/svg" xmlns:xlink="http://www.w3.org/1999/xlink" style="margin:auto;background:#323437;display:block;z-index:1;position:relative" width="1422" height="670" preserveAspectRatio="xMidYMid" viewBox="0 0 1422 670">
<g transform="translate(711,335) scale(1,1) translate(-711,-335)"><g transform="translate(1104.260149659381,29.956159396913677) scale(100)" opacity="0.4">
  <path d="M4.8276900000000005 0 C4.8276900000000005 1.14471 5.011869687674206 1.571807060033915 4.439514687674206 2.5631549999999996 S3.4051929399660854 3.608547181596097 2.4138450000000007 4.180902181596097 S1.1447100000000001 5.12631 3.138959566468534e-16 5.12631 S-1.4224970600339146 4.753257181596097 -2.4138449999999994 4.180902181596097 S-3.8671596876742043 3.5545029399660866 -4.439514687674205 2.563155000000002 S-4.8276900000000005 1.1447100000000006 -4.8276900000000005 5.912215105775686e-16 S-5.011869687674206 -1.571807060033914 -4.439514687674206 -2.5631549999999987 S-3.4051929399660867 -3.6085471815960957 -2.4138450000000025 -4.180902181596096 S-1.1447100000000008 -5.12631 -9.416878699405602e-16 -5.12631 S1.422497060033912 -4.753257181596098 2.413844999999997 -4.180902181596099 S3.8671596876742043 -3.5545029399660866 4.439514687674205 -2.5631550000000023 S4.8276900000000005 -1.144710000000001 4.8276900000000005 -1.1824430211551373e-15" fill="#000000" stroke-width="0px">
    <animateTransform attributeName="transform" type="rotate" dur="10s" repeatCount="indefinite" values="0;60" stroke-width="0px"></animateTransform>
  </path>
</g><g transform="translate(1182.9121795912574,-31.0526087237036) scale(100)" opacity="0.4">
  <path d="M5.793228 0 C5.793228 1.3736519999999999 6.014243625209048 1.8861684720406982 5.327417625209048 3.075786 S4.086231527959302 4.330256617915316 2.8966140000000005 5.017082617915316 S1.3736520000000003 6.151572000000001 3.766751479762241e-16 6.151572000000001 S-1.706996472040697 5.7039086179153164 -2.8966139999999987 5.0170826179153165 S-4.640591625209046 4.265403527959304 -5.327417625209047 3.0757860000000026 S-5.793228 1.3736520000000005 -5.793228 7.094658126930823e-16 S-6.0142436252090485 -1.8861684720406968 -5.327417625209049 -3.0757859999999986 S-4.086231527959304 -4.330256617915314 -2.8966140000000027 -5.017082617915315 S-1.373652000000001 -6.151572000000001 -1.1300254439286722e-15 -6.151572000000001 S1.7069964720406938 -5.703908617915317 2.896613999999996 -5.017082617915318 S4.640591625209045 -4.265403527959304 5.327417625209046 -3.075786000000003 S5.793228 -1.3736520000000012 5.793228 -1.4189316253861646e-15" fill="#000000" stroke-width="0px" fill-opacity="0.5">
    <animateTransform attributeName="transform" type="rotate" dur="5s" repeatCount="indefinite" values="0;60" stroke-width="0px" fill-opacity="0.5"></animateTransform>
  </path>
</g><g transform="translate(1371.6770514277603,-177.473652213185) scale(100)" opacity="0.4">
  <path d="M8.110519199999999 0 C8.110519199999999 1.9231127999999997 8.419941075292666 2.640635860856977 7.458384675292666 4.306100399999999 S5.720724139143022 6.062359265081441 4.0552596 7.023915665081441 S1.9231128000000002 8.6122008 5.273452071667137e-16 8.6122008 S-2.3897950608569754 7.985472065081441 -4.055259599999998 7.023915665081442 S-6.496828275292664 5.9715649391430246 -7.458384675292664 4.306100400000003 S-8.110519199999999 1.9231128000000006 -8.110519199999999 9.93252137770315e-16 S-8.419941075292666 -2.6406358608569747 -7.458384675292667 -4.306100399999997 S-5.720724139143025 -6.062359265081438 -4.055259600000003 -7.023915665081439 S-1.9231128000000013 -8.6122008 -1.582035621500141e-15 -8.6122008 S2.3897950608569714 -7.985472065081443 4.055259599999994 -7.023915665081445 S6.496828275292662 -5.971564939143025 7.458384675292663 -4.306100400000004 S8.110519199999999 -1.9231128000000017 8.110519199999999 -1.98650427554063e-15" fill="#000000" stroke-width="0px" fill-opacity="0">
    <animateTransform attributeName="transform" type="rotate" dur="3.3333333333333335s" repeatCount="indefinite" values="0;60" stroke-width="0px" fill-opacity="0"></animateTransform>
  </path>
</g></g>
</svg>