<svg xmlns="http://www.w3.org/2000/svg" version="1.1" xmlns:xlink="http://www.w3.org/1999/xlink" xmlns:svgjs="http://svgjs.dev/svgjs" viewBox="0 0 1422 800"><defs><linearGradient x1="50%" y1="0%" x2="50%" y2="100%" id="ssscribble-grad"><stop stop-color="hsl(206, 75%, 49%)" stop-opacity="1" offset="0%"></stop><stop stop-color="hsl(331, 90%, 56%)" stop-opacity="1" offset="100%"></stop></linearGradient></defs><g fill="none" stroke-width="1" stroke="url(#ssscribble-grad)" stroke-linecap="round" stroke-dasharray="150"><path d="M1409.4 296.47C1517.13 326.92 1285.29 327.15 937.8 302.42 764.34 282.38 894.26 249.28 1191.58 221.53 1435.1 225.37 1443.61 268.55 1236.97 372.37 937.2 525.71 716.25 725.62 654.62 931.5 749.94 1074.99 927.65 1116 1097.56 1019.05 1229.29 823.53 1274.4 595.55 1250.32 449.14 1175.96 476.67 1080.31 679.73 993.23 967.77 898.77 1178.03 832.39 1187.04 801.95 974.56 771.51 676.52 778.43 482.67 815.48 498.42 845.14 705.04 885.41 968.81 907.01 1143.71 878.32 1154.17 783.08 998.07 604.42 760.24 387.59 524.45 166.17 378.98 30.96 346.66 52.68 417.92 237.53 546.72 505.6 680.65 680.54 808.38 644.73 887.55 378.89 917.89 59.25 916.97 -87.98 885.9 73.72 843.41 409.46 792 635.13 746.96 527.4 716.52 176.57 686.07 -80.16 671.66 -22.42 665.66 290.86 650.74 594.54 626.42 666.26 574.58 475.95 491.48 187.01 362.17 1.31 187.52 15.48 6.67 214.54 -165.82 476.11 -276.99 704.89 -284.58 812.24 -175.2 803.16 28.88 701.72 235.01 570.7 363.81 459.22 331.03 358.69 133.82 306.59 -147.27 294.38 -365.64 294.7 -393.14 314.92 -205.46 345.37 92.57 375.81 305.05 415.04 302.21 472.13 103.7 541.76 -172.58 649.24 -358.32 802.53 -363.53 966.77 -194.81 1147.93 60.47 1296.3 287.69 1352.29 416.34 1288.65 411.42 1099.78 307.83 878.11 141.86 715.15 -14.33 732.68 -120.75 950.08 -177.64 1266.32 -170.69 1478.95 -121.77 1429.54 -41.26 1143.19 47.21 841.65 124.67 795.66 206.81 1058.57 266.03 1409.4 296.47Q1409.4 296.47 1409.4 296.47" opacity="0.21"></path><path d="M1386.34 98.13C1496.05 126.88 1296.98 138.65 965.82 140.25 751.51 149.57 803.47 164.34 1052.97 201.34 1329.67 267.41 1443.58 375.96 1347.52 531.17 1099.72 702.81 835.46 882.93 663.67 1026.66 622.36 1086.09 702.06 1039.34 838.21 882.73 1000.12 678.31 1121.26 490.16 1185.54 411 1211.66 494.57 1194.65 718.75 1158.02 988.94 1109.01 1166.25 1064.71 1156 1035.96 950.22 1007.2 667.65 995.36 470.26 990.14 455.3 972.54 621.44 937.25 868.42 861.3 1069.68 747.19 1146.12 578.7 1064.8 372.47 875.38 192.01 640.71 71.03 445.6 74.65 334.12 208.76 314.11 438.92 371.93 656.79 468.23 722.91 591.11 583.21 695.8 285.43 766.75 14.86 821.21 -53.46 841.18 149.74 836.3 469.81 823.51 663.05 799.67 553.34 770.92 223.5 742.17 -39.49 709.86 -31.22 668.42 231.92 619.08 546.85 546.81 699.17 442.51 609.37 321.73 360.53 169.69 121.89 2.5 10.28 -138.11 83.19 -237.21 279.92 -254.88 528.78 -181.1 729.05 -20.09 839.49 184.62 861.81 344.11 814.37 399.66 741.01 302.17 644.18 79.86 569.05 -183.48 528.33 -360.74 490.98 -356.93 487.28 -165.42 516.02 117.12 544.78 322.96 604.6 339.11 696.17 172.92 791.11 -86.16 918.54 -294 1065.2 -356.53 1188.4 -256.31 1283.22 -42.38 1305.24 191.97 1239.14 378.53 1080.18 459.39 869 437.65 709.92 331.6 671.07 192.76 812.58 65.44 1218.46 -76.05 1186.25 -91.3 784.88 -27.62 787.63 24.99 1056.4 69.36 1386.25 98.12Q1386.34 98.13 1386.34 98.13" opacity="0.20"></path><path d="M1361.84 27.21C1474.2 54.28 1308.36 82.67 999.61 117.55 755.83 159.62 732.89 221.04 916.64 311.18 1190.69 418.56 1381.58 558.16 1400.17 719.72 1249.78 866.86 1009.46 989.7 783.25 1050.18 626.6 1026.59 581.5 912.42 623.67 727.64 732.21 542.05 853.42 409.46 952.38 397.33 1041.72 526.52 1090.19 760.21 1104.22 1006.72 1108.76 1151.44 1094 1124.08 1066.94 925.72 1039.88 658.94 1001.8 460.48 946.22 418.3 881.15 543.3 783.46 764.37 647.21 976.6 501.35 1105.18 335.58 1097.52 185.33 972.75 101.45 771.35 107.7 562.68 228.88 399 419.62 298.02 627.85 273.3 750.06 304.05 703.29 379.94 488.13 466.7 194.25 541.61 -9.33 617.3 -1.79 665.68 231.53 685.87 529.85 701.95 690.2 695.45 577.84 668.39 268.75 641.33 4.71 594.99 -29.85 527.87 178.55 456.64 483.76 359.03 694.34 236.44 704.92 114.64 530.57 -16.68 291.63 -134.28 96.46 -206.74 43.21 -220.88 129.93 -155.37 319.79 -27.17 535.45 149.4 715.58 322.62 847.27 419.22 907.43 402.64 917.15 254.25 888.03 22.19 848.52 -214.27 821.23 -349.75 788.23 -318.06 782.22 -125.14 809.28 141.62 836.34 340.04 895.19 372.95 979.24 238.71 1057.56 2.64 1146.3 -215.66 1222.32 -325.04 1259.49 -293.1 1243.9 -136.25 1153.93 77.51 1015.5 290.48 838.69 436.74 684.31 495.8 633.05 470.8 718.39 386.82 941.74 281.38 1208.85 161.53 1407.48 66.5 1416.73 6.01 1081.08 -43.32 917.99 -12.06 1361.84 27.21Q1361.84 27.21 1361.84 27.21" opacity="0.44"></path><path d="M1337.34 113.87C1451.17 139.24 1317.16 181.31 1035.97 241.69 775.92 306.14 687.42 394.89 795.9 508.12 1034.63 623.55 1263.8 753.19 1378.22 878.7 1344.05 969.75 1182.45 1016.19 969.29 993.4 756.6 904.4 610.67 752.84 544.4 572.19 549.09 427.7 602.79 358.76 671.27 407.7 757.17 570.06 823.35 802.25 859.79 1020.55 894.24 1133.68 898.81 1091.48 873.44 901.22 848.06 650.5 793.96 453.39 711.66 387.8 627.37 472.48 515.04 660.63 385.17 869.3 272.72 1033.18 177.25 1090.39 133.45 1036.55 160.63 892.19 270.13 704.75 449.57 523.76 629.48 369.79 761 273.55 768.74 232.51 627.91 238.5 375.98 274.98 118.66 320.43 -8.4 379.86 65.64 426.4 315.9 451.4 587.3 476.79 716.17 477.78 602.34 452.41 314.15 427.04 52.86 376.5 -18.83 303.27 132.43 230.43 410.31 137.73 654.99 34.33 754.58 -55.07 673.93 -133.34 480.72 -178.43 256.98 -176.49 109.52 -116.68 78.45 4.02 158.94 151.75 315.69 309.12 492.91 427.07 672.54 454.5 809.78 374.55 899.62 192.1 957.84 -35.15 984.94 -237.74 999.36 -332.25 1004.14 -276.5 1015.17 -84.58 1040.54 166.12 1065.9 356.43 1104.41 403.83 1147.48 300.53 1180.91 92.03 1199.98 -125.72 1185.74 -269.51 1139.89 -299.88 1044.44 -208.2 903.92 -37.3 765.79 169.76 645.44 351.4 598.17 473.67 662.47 529.71 839.98 519.7 1090.13 467.75 1309.78 381.34 1413.23 293.48 1332.28 222.02 1106.22 152.75 842.77 110.16 701.24 93.56 782.66 81.02 1049.04 88.49 1337.25 113.86Q1337.34 113.87 1337.34 113.87" opacity="0.25"></path><path d="M1312.84 321.45C1426.96 345.13 1322.97 392.05 1073.28 460.24 809.71 528.57 668.68 616.72 700.58 717.66 879.32 808.52 1106.5 894.8 1282 957.35 1354.7 979.7 1299.85 952.02 1155.84 864.84 958.9 739.12 771.68 583.32 629.33 434.71 532.5 345.61 492.08 340.58 488.86 439.93 515.19 622.03 548.01 842.83 570.01 1029.75 596.87 1112.91 601.16 1058.19 577.48 876.72 553.8 642.3 503.28 448.84 431.76 363.92 365.1 410.46 289.2 561.03 221.83 753.36 184.02 934.51 185.45 1041.87 245.78 1055.39 351.63 980.5 504.85 841.47 670.76 677.81 783.74 508.02 810.51 368.56 713.15 270.61 513 207.98 264.59 182.42 68.49 179.57 19.23 196.11 146.79 215.45 401.22 226.13 641.77 240.51 740.96 237.96 626.84 214.28 359.65 190.6 104.64 146.91 2.17 87.87 96.86 32.54 333.47 -29.87 587.33 -87.44 754.65 -125.63 770.03 -139.06 654.55 -112.93 457.29 -51.48 268.49 53.97 147.82 192.72 111.04 325.35 164.92 436.31 275.8 486.55 427.21 448.38 577.04 319.8 702.97 121.31 818.47 -88.37 901.48 -252.43 957.59 -308.14 1006.4 -232.4 1040.28 -43.77 1063.95 190.62 1087.64 372.14 1100 431.71 1095.87 357.72 1084.42 179.96 1044.5 -27.36 970.04 -192.13 885.16 -274.14 774.32 -247.89 659.4 -134.15 584.99 39.11 565.08 222.99 632.86 379.75 784.54 497.97 1001.41 559.65 1223.34 573.8 1363.51 547.74 1369.41 500.46 1219.48 450.64 982.99 390.72 759.84 345.65 674.23 321.98 785.77 298.44 1045.54 297.77 1312.75 321.44Q1312.84 321.45 1312.84 321.45" opacity="0.91"></path><path d="M1288.25 562.23C1401.55 584.22 1325.47 625.61 1109.97 682.39 854.57 736.3 676.37 799.09 637.96 860.75 742.46 906.49 932.51 933.82 1127 928.53 1274.31 889.96 1322.94 808.84 1276.81 688.42 1153.61 558.52 993.28 428.18 835.02 331.05 684.53 302.55 572.41 354.58 498.54 490.39 448.81 678.86 423.09 879.94 407.69 1033.71 399.62 1089.09 387.67 1024.24 365.68 852.21 343.69 634.31 312.71 446.65 279.31 346.64 253.24 358.4 238.96 469.17 250.59 634.95 286.35 815.9 362.27 954.97 478.86 1023.97 603.24 1018.8 732 943.52 826.38 824.26 843.69 675.18 768.99 528.67 598.79 403.12 381.41 294.18 171.64 216.89 51.01 166.43 73.32 132.85 239 113.7 485.91 99.57 692.92 90.24 764.55 76.62 651.25 54.64 405.07 32.65 159.64 3.33 33.24 -28.8 74.68 -56.14 260.49 -76.98 500.46 -81.51 708.09 -69.15 806.27 -28.08 781.64 46.96 653.03 138.62 479.96 253.56 321.1 373.82 199.5 464.27 150.31 513.48 166.13 495.76 234.72 403.88 334.09 245.11 438.65 48.05 553.85 -133.84 651.46 -257.15 724.39 -277.42 795.78 -185.94 842.88 -2.77 864.87 215.11 886.86 387.19 882.69 456.55 852.77 409.69 821.31 264.41 763.7 75.85 686.6 -96.51 620.15 -216.22 556.98 -248.54 522.29 -197.16 540.35 -77.14 621.11 79.26 771.53 237.98 959.21 387.22 1158.35 499.91 1309.85 572.38 1357.37 611.56 1278.91 620.43 1087.4 612.8 863.55 589.25 690.25 566.45 657.3 554.01 792.19 538.7 1042.07 540.24 1288.25 562.23Q1288.25 562.23 1288.25 562.23" opacity="0.97"></path><path d="M1263.84 734.45C1374.98 754.75 1324.15 783.22 1144.14 815.89 907.04 844.58 708.19 869.61 612.08 882.32 639.46 880.2 767.74 853.85 941 796.69 1117.91 720.71 1239.88 617.54 1287.27 498.4 1263.43 393.26 1179.39 309.45 1064.42 272.53 926.25 300.98 796.85 397.63 689.84 554.28 591.12 736.78 518.57 911.71 468.35 1031.98 423.26 1062.25 392.03 989.67 371.74 827.72 351.44 626.51 343.04 446.69 349.85 335.88 361.79 317.22 397.41 388.35 460.96 520.42 532.8 685.85 628.77 837.02 735.66 943.79 819.35 997.74 874.25 988.15 871.49 927.87 797.49 826.69 651.46 706.67 453.42 587.07 259.03 465.62 112.55 362.87 70.29 282.31 151.52 211.09 338.82 158.84 568.08 121.16 740.27 87.27 786.98 61.28 675.84 40.98 450.66 20.68 217.71 7.04 74.23 2.66 67.93 2.05 198.1 17.39 405.15 53.43 623.87 98.82 780.09 168.15 840.2 258.31 801.21 346.63 689.12 437.51 547.9 512.09 398.02 545.76 283.9 531.3 218.31 456.21 193.03 328.3 210.79 158.94 254.31 -21.36 318.77 -168.31 386.27 -250.99 443.96 -240.16 505.19 -137.19 548.29 38.51 568.58 239.72 588.88 401.67 585.42 478.37 562.47 455.92 543.05 343.49 512.47 180.11 483.19 12.48 474.84 -129.28 490.5 -207.73 547.07 -215.04 643.94 -156.98 787.2 -49.11 963.68 82.62 1131.5 228.36 1267.65 360.67 1327.78 467.93 1288.8 556.37 1150.78 616.15 946.94 653.44 754.77 675.91 636.16 687.79 650.28 697.39 801.6 702.99 1038.66 714.15 1263.84 734.45Q1263.84 734.45 1263.84 734.45" opacity="0.95"></path><path d="M1239.33 765.28C1347.21 783.88 1318.9 797.73 1174.46 804.47 963.73 807.91 760.25 798.32 623.23 771.07 580.95 734.8 636.15 676.38 757.75 596.47 918.94 513.45 1069.08 420.58 1178.29 331.9 1242.42 271.04 1248.72 243.21 1210.48 264.33 1136.2 338.71 1045 464.05 954.4 625.92 856.67 791.98 774.14 936.44 712.14 1024.14 650.9 1032.37 610.31 954.41 591.7 803.12 573.09 618.76 577.36 448.65 603.51 331.34 630.42 287.43 679.11 321.28 744.59 415.87 802.95 553.88 863.51 698.81 909.12 823 918.68 917.61 885.67 963.42 797.16 962.6 663.56 921.76 491.36 850.48 310.8 764.28 169.83 663.52 97.95 566.59 126.59 481.86 249.97 397.9 442.86 330.32 646.41 280.01 783.67 231.34 808.21 197.58 700.33 178.98 496.03 160.37 278.19 157.8 124.61 171.38 78.17 186.6 152.64 220.34 313.4 272.05 516.24 324.54 699.48 390.83 822.31 462.91 870.11 520.44 841.37 565.01 760.1 581.47 639.79 557.9 517.58 490.03 415.38 376.05 328.16 232.49 276.09 70.88 254.88 -80.77 251.72 -188.99 266.8 -233.43 289.69 -196.7 317.83 -86.57 343.61 79.76 362.21 264.12 380.82 415.41 391.37 497.14 398.33 496.08 410.52 415.56 429.28 281.69 464.67 129.27 518.11 -18.95 600.8 -127.61 716.68 -182.62 847.55 -184.37 996.48 -134.47 1141.19 -49.23 1246.86 63.83 1297.69 183.41 1269.29 295.11 1165.85 403.68 999.31 492.75 810.11 561.26 662.96 620.75 599.04 664.19 652.61 695.83 813.33 724.18 1034.92 746.66 1239.24 765.27Q1239.33 765.28 1239.33 765.28" opacity="0.47"></path><path d="M1214.83 641.66C1309.62 675.49 1013.32 651.23 668.1 563.77 559.55 468.7 733.95 329.67 979.53 221.11 1175.39 235.22 1208.55 404.45 1144.17 699.03 1022.9 949.97 920.73 1002.4 886.91 778.62 853.08 450.73 890.8 269.44 953.44 326.59 959.2 561.86 873.24 798.24 633.05 917.27 343.14 916.44 132.86 812.97 216.61 689.79 537.04 544.99 819.62 444.25 724.83 410.42 334.37 376.59 103.28 412.88 236.58 499.07 588.95 563.62 852.48 614.3 894.6 570.79 750.57 407.42 563.39 135.16 445.12 -124.89 355.56 -206.84 341.99 -39.26 375.82 288.62 409.64 512.4 487.66 473.68 635.85 247.54 812.74 -22.24 1052.71 -155.58 1241.07 -125.35 1243.3 27.53 1015.65 219.36 688.07 373.05 579.57 519.13 824.37 607.83 1214.83 641.66Q1214.83 641.66 1214.83 641.66" opacity="0.74"></path><path d="M1189.35 415.89C1296.51 446.34 1069.43 413.26 741.04 331.77 538.11 264.19 575.5 193.38 748.64 186.04 972.19 283.64 1110.83 496.86 1151.09 767.09 1142.9 957.41 1101.97 966.59 1071.52 754.11 1041.08 456.07 1024.01 261.43 979.43 256.98 886.41 421.12 700.26 637.58 436.81 797.73 223.76 889.22 154.08 882.82 334.7 827.49 640.77 741.31 855.51 667.87 748.35 637.42 397.66 606.98 146.6 622.42 185.41 655.83 457.87 658.4 754.07 617.29 913.71 485.89 920.5 285.84 823.33 37.1 726.12 -149.36 615.11 -167.22 569.07 15.07 599.51 313.11 629.96 525.59 734 528.75 897.77 360.75 1047.75 112.84 1192.43 -68.09 1225.54 -125.79 1105.8 -78.54 841.9 39.77 591.75 160.12 575.25 294.36 838.66 385.45 1189.35 415.89Q1189.35 415.89 1189.35 415.89" opacity="0.31"></path><path d="M1165.84 183.5C1278.2 210.56 1116.2 193.85 829.1 155.45 578.28 139.97 495.61 150.57 558.2 230.75 719.7 380.31 874.95 600.23 967.3 824.59 1040.16 954.19 1055.33 928.08 1028.27 729.72 1001.2 462.94 934.47 264.84 814.72 210.48 675.47 299.87 477.99 467.01 281.02 626.35 182.95 765.91 236.92 832.95 467.91 841.99 735.17 824.92 886.2 791.21 773.84 764.15 464.75 737.08 207.72 719.24 165.23 689.41 334.71 633.47 599.35 524.2 815.88 349.17 962.92 56.43 883.29 -22.62 895.3 337.72 922.36 536.08 1004.02 573.16 1107.1 463.4 1175.54 258.87 1191.49 67.66 1093.07 -46.43 912.01 -91.14 676.07 -59.5 526.43 2.87 588.76 88.17 856.75 156.44 1165.84 183.5Q1165.84 183.5 1165.84 183.5" opacity="0.83"></path><path d="M1141.34 42.51C1255.46 66.18 1153.81 77.98 924.59 94.79 670.37 131.98 507.27 208.55 461.01 341.61 511.88 505.81 607.09 700.16 685.89 865.87 772.32 939.31 808.94 886.69 785.26 705.22 761.58 470.8 679.85 278.49 552.38 188.32 432.55 208.96 300.38 311.02 218.47 435.98 233.7 575.71 371.68 675.22 608.54 724.43 820.41 759.53 912.46 760.52 798.34 736.84 531.15 713.16 283.48 667.06 182.33 590.92 247.9 500.67 434.65 364.21 639.48 193.44 831.28 37.45 950.85 -89.72 1008.89 -127.71 1036.64 -54.9 1049.86 127.8 1073.54 362.22 1097.21 543.68 1129.11 605.9 1142.42 549.82 1125.42 401.47 1042.83 232.23 882.07 99.07 708.28 -2.95 546.63 -42.56 498.37 -38.71 616.82 -14.49 874.06 18.82 1141.25 42.5Q1141.34 42.51 1141.34 42.51" opacity="0.18"></path><path d="M1116.84 52.61C1227.98 72.9 1178.1 109.46 1014.51 168.35 794.79 238.88 603.47 347.51 484.2 491.14 428.9 636.4 431.91 783.13 454.08 886.81 495.46 912.58 515.71 842.66 495.42 680.72 475.12 479.51 416.2 301.3 339.64 190.59 282.3 156.33 247.61 192.15 276.32 263.96 368.98 366.45 538.77 456.71 743.61 513.88 892.33 568.77 933.98 587.46 822.84 567.16 597.66 546.87 371.82 489.51 236.56 399.44 214.5 307.1 304.6 185.16 446.93 56.07 620.23 -42.33 767.05 -99.68 866.35 -80.3 952.65 15.53 1002.83 185.51 1023.13 386.72 1043.44 548.66 1031.95 626.81 980.83 615.91 916.72 527.11 801.58 401.9 654.88 283.24 539.13 166.22 470.53 89.27 507.43 53.91 657.53 30.19 891.57 32.3 1116.75 52.6Q1116.84 52.61 1116.84 52.61" opacity="0.71"></path><path d="M1092.34 209.54C1187.13 243.37 903.47 403.08 614.66 643.42 421.28 829.14 375.36 879.93 341.54 656.22 307.71 328.28 292.38 142.88 441.42 143.6 685.9 263.8 942.13 360.65 847.34 326.83 456.85 293 235.87 134.89 306.31 -29.63 542.66 -74.68 742.03 83.28 775.86 411.22 809.68 634.93 671.57 611.56 479.56 470.18 453.44 274.17 701.85 175.71 1092.34 209.54Q1092.34 209.54 1092.34 209.54" opacity="0.20"></path><path d="M1067.84 446.97C1180.2 474.03 1025.53 604.59 804.44 761.96 575.16 853.36 447.73 830.08 420.67 631.72 393.6 364.91 472.04 167.83 665.85 97.07 851.46 110.18 984.2 144.48 871.84 117.42 562.72 90.35 320.15 7.06 268.84 -41.52 344.06 -6.22 460.61 168.91 487.68 435.72 514.74 634.08 447.19 679.29 407.43 623.36 494.22 501.47 758.72 419.91 1067.84 446.97Q1067.84 446.97 1067.84 446.97" opacity="0.72"></path><path d="M1043.34 664.55C1154.48 684.84 1106.22 754.69 986.39 817.49 823.36 833.56 703.2 769.16 682.91 607.22 662.61 405.99 746.01 231.13 882.45 130.65 975.67 71.25 1007.48 47.74 896.34 27.44 671.13 7.14 459.67 -6.08 352.28 26.71 304.2 100.58 320.04 258.99 340.34 460.22 360.64 622.16 381.54 703.01 456.23 713.55 590.22 677.35 818.13 644.25 1043.34 664.55Q1043.34 664.55 1043.34 664.55" opacity="0.14"></path><path d="M1018.84 770.3C1131.2 797.36 989.92 781.08 962.86 582.72 935.79 315.87 1033.2 122 920.84 94.94 611.66 67.87 399.71 217.87 426.78 484.72 453.84 683.08 709.66 743.23 1018.84 770.3Q1018.84 770.3 1018.84 770.3" opacity="0.65"></path></g></svg>